# xmcd
#
# Track frame offsets:
#	150
#	19164
#	32571
#	51549
#	75489
#	95450
#	121217
#	140832
#	159982
#	177940
#	188738
#	208561
#	223550
#
# Disc length: 3050 seconds
#
# Revision: 1
# Processed by: cddbd v1.5.2PL0 Copyright (c) Steve Scherf et al.
# Submitted via: audiograbber 1.83.01
#
DISCID=af0be80d
DTITLE=Barbara Kindermann - Götz Von Berlichingen_Weltliteratur für Kinder
DYEAR=2004
DGENRE=Hoerbuch
TTITLE0=Vorspann_Gegen Ende des Mittelalters
TTITLE1=Auf Berlichingens Burg Jagsthausen wartete derweil ...
TTITLE2=Kaum war Weislingen allein, brach es aus ihm heraus ...
TTITLE3=In Bamberg hatte die Nachricht ...
TTITLE4=Die Nachricht von Weislingens Aussöhnung ...
TTITLE5=Götz hatte das Reichsheer zwar empfindlich geschlagen ...
TTITLE6=Kurz darauf verliess Götz von Berlichingen ...
TTITLE7=So kam es doch noch zu einer Einigung ...
TTITLE8=Sie brachten Götz erneut nach Heilbronn ...
TTITLE9=Originalauszug aus Akt 1 - Götz kehrt nach der Gefangennahme ...
TTITLE10=Originalauszug aus Akt 2 - Nach der Gefangennahme Weislingens ...
TTITLE11=Originalauszug aus Akt 3 - Götz und sein Knappe Georg ...
TTITLE12=Originalauszug - Das bekannteste Zitat
EXTD=
EXTT0=
EXTT1=
EXTT2=
EXTT3=
EXTT4=
EXTT5=
EXTT6=
EXTT7=
EXTT8=
EXTT9=
EXTT10=
EXTT11=
EXTT12=
PLAYORDER=
